<svg xmlns="http://www.w3.org/2000/svg" width="60.455" height="52.911" viewBox="0 0 60.455 52.911">
  <path id="hand-rock-solid" d="M54.882,37.663a5.668,5.668,0,0,0-5.762,5.668h-.945V39.647A5.74,5.74,0,0,0,42.6,33.884a5.668,5.668,0,0,0-5.762,5.668v3.778H35.9V37.757A5.74,5.74,0,0,0,30.322,32a5.668,5.668,0,0,0-5.762,5.668v5.668h-.945V39.647a5.74,5.74,0,0,0-5.573-5.762,5.668,5.668,0,0,0-5.762,5.668V55.611l-.945-.838v-5.68a5.74,5.74,0,0,0-5.573-5.762A5.668,5.668,0,0,0,0,49v7.84a11.363,11.363,0,0,0,3.8,8.478L16.991,77.042a5.693,5.693,0,0,1,1.9,4.239v.791a2.827,2.827,0,0,0,2.834,2.834H50.065A2.827,2.827,0,0,0,52.9,82.072v-.342a11.5,11.5,0,0,1,.886-4.4L59.57,63.593a11.287,11.287,0,0,0,.886-4.4V43.425A5.732,5.732,0,0,0,54.882,37.663Z" transform="translate(0 -31.995)" fill="#ffffff" opacity="0.3"/>
</svg>
